<svg xmlns="http://www.w3.org/2000/svg" width="512" height="512" viewBox="0 0 512 512">
  <g fill="none" fill-rule="evenodd">
    <circle cx="256" cy="256" r="256" fill="#22A039"/>
    <g fill="#FFFFFF" transform="translate(113 120)">
      <path d="M59.5108682,0.207036506 C46.8236649,0.207036506 36.4134827,10.6223484 36.4134827,23.3159249 L36.4134827,136.206982 L36.4134827,213.185404 C36.4134827,220.054723 46.7126452,220.054723 46.7126452,213.185404 L46.7126452,136.206982 L46.7126452,23.3159249 C46.7126452,16.1692419 52.3678654,10.5082994 59.5108682,10.5114028 L246.433054,10.5889871 C246.433054,10.5889871 241.758694,16.7425903 241.563715,23.1607562 L241.563715,249.098427 C241.563715,256.244722 235.908491,261.978594 228.765488,261.978594 C221.622485,261.978594 215.967265,256.244722 215.967265,249.098427 L215.967265,231.141916 C215.938402,228.321724 213.638113,226.051218 210.817684,226.06208 L5.66745472,226.06208 C2.84835924,226.051218 0.548639718,228.319785 0.517873478,231.138424 L0.517873478,249.094936 C0.517873478,261.788124 10.9280533,272.203436 23.6152597,272.203436 L228.159655,272.203436 C232.618024,272.242228 237.379554,270.667266 239.374523,269.464708 C246.995674,265.284463 251.629287,256.552344 251.862738,249.076703 L251.862738,23.4454908 C252.050401,17.2635693 257.388238,10.4923946 264.660961,10.4896792 C271.803964,10.4896792 277.534912,16.1475183 277.534912,23.2942013 L277.534912,41.2507126 L264.660961,41.2507126 C257.245141,40.6222793 257.245141,52.1059278 264.660961,51.4790462 L282.608765,51.5566306 C285.451586,51.5674924 287.761196,49.2640128 287.758486,46.4193824 L287.758486,23.3108819 C287.758486,13.4890904 282.466118,5.38850773 273.772504,2.06867313 C270.912662,0.819564998 267.569347,0.144581099 264.6611,0.202769366 L59.5108682,0.207036506 Z M10.7413066,236.293905 L205.668102,236.293905 L205.668102,249.098427 C205.668102,254.13404 206.368465,258.763498 210.291945,262.76336 L23.6152597,261.978594 C16.4723198,261.948724 10.7413066,256.244722 10.7413066,249.098427 L10.7413066,236.293905 Z"/>
      <path fill-rule="nonzero" d="M81.3818925,38.7272814 L81.4536231,47.8876664 C75.1239604,50.5643266 71.3741735,57.5756249 72.5304365,64.6617921 C73.7505165,72.135881 80.185945,77.6754041 87.5035285,77.3693338 C89.3171892,77.6020868 90.834234,79.0451559 91.1885834,81.2136386 C91.5968664,83.7157341 90.1780732,85.9718872 88.0637642,86.5886828 C85.9493389,87.2132369 83.8216608,86.1270559 82.9706951,83.7723707 L73.3137001,87.4731445 C74.7783622,91.517229 77.8059147,94.5961642 81.453627,96.1707387 L81.3818963,105.436638 L91.6871423,105.436638 L91.758873,96.4907742 C98.4912935,94.0391085 102.547615,86.7853592 101.351237,79.4540254 C100.131351,71.9811002 93.6977793,66.4408014 86.3814287,66.7464837 C84.5660232,66.5137307 83.0477376,65.0706616 82.6930781,62.8982997 C82.2847951,60.3962042 83.7035495,58.1392753 85.8178973,57.5232555 C87.9323226,56.8987014 90.0600046,57.9848824 90.9109703,60.3356884 L100.567965,56.6349146 C99.0146674,52.3456635 95.7033563,49.139102 91.7588575,47.6665509 L91.6871268,38.7183592 L81.3818925,38.7272814 Z"/>
      <polygon fill-rule="nonzero" points="215.947 97.744 123.618 97.744 123.618 108.008 215.947 108.008"/>
      <polygon fill-rule="nonzero" points="215.947 128.535 72.324 128.535 72.324 138.799 215.947 138.799"/>
      <polygon fill-rule="nonzero" points="215.947 190.118 185.171 190.118 185.171 200.382 215.947 200.382"/>
      <polygon fill-rule="nonzero" points="215.947 66.953 123.618 66.953 123.618 77.216 215.947 77.216"/>
      <polygon fill-rule="nonzero" points="215.947 36.162 123.618 36.162 123.618 46.425 215.947 46.425"/>
      <polygon fill-rule="nonzero" points="215.947 159.327 72.324 159.327 72.324 169.59 215.947 169.59"/>
    </g>
  </g>
</svg>
